# xmcd
#
# Track frame offsets: 
#        150
#        19737
#        43743
#        87488
#        111869
#        132175
#        163921
#        193377
#        228940
#        295528
#
# Disc length: 4604 seconds
#
# Revision: 0
# Processed by: cddbd v1.5.2PL0 Copyright (c) Steve Scherf et al.
# Submitted via: ExactAudioCopy v0.95b3
#
DISCID=8a11fa0a
DTITLE=Traffic  - Boston 1971-10-14  FLAC
DYEAR=1900
DGENRE=
TTITLE0=Medicated Goo
TTITLE1=Light Up
TTITLE2=Glad
TTITLE3=Freedom Rider
TTITLE4=Hidden Treasure
TTITLE5=John Barleycorn
TTITLE6=Rock 'n' Roll Stew
TTITLE7=Many a Mile to Freedom
TTITLE8=Low Spark of High Heeled Boys
TTITLE9=Gimme Some Lovin'
EXTD=
EXTT0=
EXTT1=
EXTT2=
EXTT3=
EXTT4=
EXTT5=
EXTT6=
EXTT7=
EXTT8=
EXTT9=
PLAYORDER=
